<svg data-v-2cb57da0="" version="1.0" xmlns="http://www.w3.org/2000/svg" xmlns:xlink="http://www.w3.org/1999/xlink" width="100%" height="100%" viewBox="0 0 340.000000 250.000000" preserveAspectRatio="xMidYMid meet" color-interpolation-filters="sRGB" style="margin: auto;"><rect data-v-2cb57da0="" x="0" y="0" width="100%" height="100%" fill="#ffffff" fill-opacity="1" class="background"></rect> <rect data-v-2cb57da0="" x="0" y="0" width="100%" height="100%" fill="url(#watermark)" fill-opacity="1" class="watermarklayer"></rect> <g data-v-2cb57da0="" class="iconmbgsvg" transform="translate(95,54.23088836669922)"><g fill="#333" hollow-target="textRect"><g mask="url(#3738d1b9-9f76-43a6-8aff-063879431970)"><g><rect fill="#333" fill-opacity="0" stroke-width="2" x="0" y="0" width="149.999999999999" height="99.38645428885613" class="image-rect"></rect> <svg x="0" y="0" width="149.999999999999" height="99.38645428885613" filtersec="colorsb2298108734" class="image-svg-svg primary" style="overflow: visible;"><svg xmlns="http://www.w3.org/2000/svg" viewBox="0.0065417904406785965 0 150.9322052001953 100.00425720214844"><path d="M14.56 70.67a23.2 23.2 0 0 1 22-30.48h.21a23.25 23.25 0 0 1 17 7.62l9.92-9a36.72 36.72 0 0 0-26.91-12h-.18A36.57 36.57 0 0 0 4.67 81.25c.99-3.47 5.03-7.19 9.89-10.58z" fill="#005add"></path><path fill="#333" d="M147.93 38.84l-10.48-3.04 2.8 4.01-1.71 4.59 9.39-5.56z"></path><path d="M79.7 0a49.18 49.18 0 0 0-41.56 22.91A36.81 36.81 0 0 1 51 27.81a35.78 35.78 0 0 1 64.07 15.94l13.2-2.16A49.21 49.21 0 0 0 79.7 0z" fill="#0035a1"></path><path d="M129.07 43.3a117.78 117.78 0 0 0-13.68 3.75c0 .7.07 1.39.07 2.09v6.7h6.69a15.39 15.39 0 1 1 0 30.77h-83c-4.81 0-7.1-2.94-7.1-5.32 0-7 11-14.32 28.48-21.09A343.15 343.15 0 0 1 119 43.65q9-1.74 18-3a.44.44 0 0 0 .38-.44.45.45 0 0 0-.5-.44c-16.16 2-32.27 4.37-48.26 7.45-11.57 2.22-23.08 4.78-34.37 8.15a167 167 0 0 0-22.79 8.34A67.55 67.55 0 0 0 17.54 72c-4.3 3.45-9 8.7-7.95 14.66.88 4.89 5.28 8.06 9.56 9.95A43.48 43.48 0 0 0 36.6 100h85.55a28.77 28.77 0 0 0 6.92-56.7z" fill="#00acff"></path></svg></svg> <!----></g><rect v-gra="id" width="162" height="111.3864517211914" transform="translate(-6, -6)" style="pointer-events:none;" fill="url(#LyxAvnQaQGZ3jJzxSiWvD)"></rect></g> <g transform="translate(1.551483154296875,105.84822654724121)"><g data-gra="path-name" fill-rule="" class="tp-name" fill="url(#a5ccd5df-512d-4fdc-917f-d6a378339a3e)"><g transform="scale(1)"><g><path d="M16.043804606598428 0.58L16.043804606598428 0.58Q23.293804606598428 0.58 27.734974941367323-5.76L27.734974941367323-5.76 29.101150340237545-4.95Q26.808872943070043-1.67 23.140210073516158 0.4 19.46730245580018 2.48 15.23730245580018 2.48L15.23730245580018 2.48Q11.18730245580018 2.48 9.0238812959476 0.25 6.8704601360950175-1.98 6.879583141743916-6.03 6.888706147392815-10.08 9.121443680655336-15.34L9.121443680655336-15.34Q11.358425962079952-20.61 14.787548967728853-24.66 18.21667197337775-28.71 22.271740309849363-30.96 26.336808646320975-33.21 30.386808646320972-33.21L30.386808646320972-33.21Q34.616808646320976-33.21 36.519656280442895-31.12 38.41825916640273-29.02 37.92598176923522-25.74L37.92598176923522-25.74 35.88913616075383-24.97Q36.81332750287434-31.27 29.563327502874337-31.27L29.563327502874337-31.27Q26.093327502874338-31.27 22.61437787045513-29.27 19.13542823803592-27.27 16.13882940335715-23.65 13.127985820516287-20.02 11.141443680655335-15.34L11.141443680655335-15.34Q9.154901540794386-10.66 9.088302706115616-7.04 9.011703871436847-3.42 10.792754239017638-1.42 12.57380460659843 0.58 16.043804606598428 0.58ZM34.25179726654113 0.09L50.231797266541136 0.09 49.4125608712566 2.02 31.4525608712566 2.02 46.19457123821617-32.71 48.17457123821617-32.71 34.25179726654113 0.09ZM67.29730245580018 2.48L67.29730245580018 2.48Q63.24730245580018 2.48 61.10359453308227 0.18 58.945641862202265-2.11 58.91749911233745-6.19 58.895111614310544-10.26 61.05144368065534-15.34L61.05144368065534-15.34Q63.21202049516222-20.43 66.68963299713532-24.5 70.17724549910841-28.57 74.3120270727147-30.89 78.44680864632096-33.21 82.44680864632096-33.21L82.44680864632096-33.21Q86.45680864632098-33.21 88.6220270727147-30.89 90.78724549910841-28.57 90.80963299713531-24.5 90.84202049516223-20.43 88.68144368065533-15.34L88.68144368065533-15.34Q86.52511161431055-10.26 83.03749911233746-6.19 79.55564186220226-2.11 75.45359453308227 0.18 71.35730245580018 2.48 67.29730245580018 2.48ZM68.10380460659843 0.58L68.10380460659843 0.58Q71.57380460659843 0.58 75.12275423901764-1.42 78.67170387143685-3.42 81.68830270611562-7.04 84.71490154079439-10.66 86.70144368065533-15.34L86.70144368065533-15.34Q88.68798582051629-20.02 88.73882940335716-23.65 88.79542823803592-27.27 86.94437787045513-29.27 85.09332750287433-31.27 81.62332750287433-31.27L81.62332750287433-31.27Q78.16332750287434-31.27 74.63437787045513-29.27 71.10542823803593-27.27 68.08882940335715-23.65 65.0579858205163-20.02 63.071443680655335-15.34L63.071443680655335-15.34Q61.08490154079439-10.66 61.038302706115616-7.04 60.98170387143685-3.42 62.81275423901764-1.42 64.64380460659844 0.58 68.10380460659843 0.58ZM99.42730245580019 2.48L99.42730245580019 2.48Q95.74730245580018 2.48 93.60646216173555 0.88 91.47562186767092-0.72 91.15659883467877-3.62 90.82757580168662-6.52 92.4533143477694-10.35L92.4533143477694-10.35 101.94457123821617-32.71 103.83457123821617-32.71 94.30511161431055-10.26Q92.90858946898095-6.97 93.17862616926742-4.52 93.43866286955388-2.07 95.24411136399512-0.74 97.04380460659844 0.58 100.19380460659843 0.58L100.19380460659843 0.58Q105.05380460659843 0.58 109.13176056625466-2.36 113.223961274073-5.31 115.3802933404178-10.39L115.3802933404178-10.39 124.85457123821617-32.71 126.83457123821617-32.71 117.34331434776941-10.35Q115.70059680903825-6.48 112.91961984203039-3.58 110.12439812686044-0.67 106.64797266541136 0.9 103.16730245580018 2.48 99.42730245580019 2.48ZM151.68144368065532-15.34L151.68144368065532-15.34Q149.4699298882033-10.13 145.99749911233747-6.19 142.5250683364716-2.25 138.19669222978305-0.11 133.87256087125658 2.02 129.1425608712566 2.02L129.1425608712566 2.02 119.11256087125659 2.02 133.85457123821618-32.71 143.88457123821618-32.71Q148.61457123821617-32.71 151.13043987968973-30.58 153.64206377300115-28.44 153.76963299713532-24.5 153.89720222126945-20.56 151.68144368065532-15.34ZM149.65144368065532-15.34L149.65144368065532-15.34Q151.6210068278679-19.98 151.6024239364394-23.47 151.56959629684883-26.95 149.4145879439713-28.87 147.25533484293163-30.78 142.97533484293163-30.78L142.97533484293163-30.78 135.01533484293162-30.78 121.91179726654114 0.09 129.87179726654114 0.09Q134.10179726654113 0.09 137.92103366182565-1.84 141.7345148052723-3.78 144.7174424175196-7.25 147.68612528160486-10.71 149.65144368065532-15.34Z" transform="translate(-6.879545211791992, 33.209999084472656)"></path></g> <!----> <!----> <!----> <!----> <!----> <!----> <!----></g></g> <!----></g></g></g><mask id="27dbba4d-0265-41e0-831e-8c19b538935d"><g fill="white"><g><rect fill-opacity="1" stroke-width="2" x="0" y="0" width="149.999999999999" height="99.38645428885613" class="image-rect"></rect> <svg x="0" y="0" width="149.999999999999" height="99.38645428885613" filtersec="colorsb2298108734" class="image-svg-svg primary" style="overflow: visible;"><svg xmlns="http://www.w3.org/2000/svg" viewBox="0.0065417904406785965 0 150.9322052001953 100.00425720214844"><path d="M14.56 70.67a23.2 23.2 0 0 1 22-30.48h.21a23.25 23.25 0 0 1 17 7.62l9.92-9a36.72 36.72 0 0 0-26.91-12h-.18A36.57 36.57 0 0 0 4.67 81.25c.99-3.47 5.03-7.19 9.89-10.58z"></path><path d="M147.93 38.84l-10.48-3.04 2.8 4.01-1.71 4.59 9.39-5.56z"></path><path d="M79.7 0a49.18 49.18 0 0 0-41.56 22.91A36.81 36.81 0 0 1 51 27.81a35.78 35.78 0 0 1 64.07 15.94l13.2-2.16A49.21 49.21 0 0 0 79.7 0z"></path><path d="M129.07 43.3a117.78 117.78 0 0 0-13.68 3.75c0 .7.07 1.39.07 2.09v6.7h6.69a15.39 15.39 0 1 1 0 30.77h-83c-4.81 0-7.1-2.94-7.1-5.32 0-7 11-14.32 28.48-21.09A343.15 343.15 0 0 1 119 43.65q9-1.74 18-3a.44.44 0 0 0 .38-.44.45.45 0 0 0-.5-.44c-16.16 2-32.27 4.37-48.26 7.45-11.57 2.22-23.08 4.78-34.37 8.15a167 167 0 0 0-22.79 8.34A67.55 67.55 0 0 0 17.54 72c-4.3 3.45-9 8.7-7.95 14.66.88 4.89 5.28 8.06 9.56 9.95A43.48 43.48 0 0 0 36.6 100h85.55a28.77 28.77 0 0 0 6.92-56.7z"></path></svg></svg> </g></g> <g transform="translate(1.551483154296875,105.84822654724121)"><rect fill="black" fill-opacity="1" x="-3.5" y="-3.5" width="153.89703369140625" height="42.689998626708984"></rect><rect fill="black" fill-opacity="1" x="-3.5" y="-3.5"></rect></g><g transform="translate(1.551483154296875,105.84822654724121)" fill="black"><g data-gra="path-name" fill-rule="" class="tp-name"><g transform="scale(1)"><g><path d="M16.043804606598428 0.58L16.043804606598428 0.58Q23.293804606598428 0.58 27.734974941367323-5.76L27.734974941367323-5.76 29.101150340237545-4.95Q26.808872943070043-1.67 23.140210073516158 0.4 19.46730245580018 2.48 15.23730245580018 2.48L15.23730245580018 2.48Q11.18730245580018 2.48 9.0238812959476 0.25 6.8704601360950175-1.98 6.879583141743916-6.03 6.888706147392815-10.08 9.121443680655336-15.34L9.121443680655336-15.34Q11.358425962079952-20.61 14.787548967728853-24.66 18.21667197337775-28.71 22.271740309849363-30.96 26.336808646320975-33.21 30.386808646320972-33.21L30.386808646320972-33.21Q34.616808646320976-33.21 36.519656280442895-31.12 38.41825916640273-29.02 37.92598176923522-25.74L37.92598176923522-25.74 35.88913616075383-24.97Q36.81332750287434-31.27 29.563327502874337-31.27L29.563327502874337-31.27Q26.093327502874338-31.27 22.61437787045513-29.27 19.13542823803592-27.27 16.13882940335715-23.65 13.127985820516287-20.02 11.141443680655335-15.34L11.141443680655335-15.34Q9.154901540794386-10.66 9.088302706115616-7.04 9.011703871436847-3.42 10.792754239017638-1.42 12.57380460659843 0.58 16.043804606598428 0.58ZM34.25179726654113 0.09L50.231797266541136 0.09 49.4125608712566 2.02 31.4525608712566 2.02 46.19457123821617-32.71 48.17457123821617-32.71 34.25179726654113 0.09ZM67.29730245580018 2.48L67.29730245580018 2.48Q63.24730245580018 2.48 61.10359453308227 0.18 58.945641862202265-2.11 58.91749911233745-6.19 58.895111614310544-10.26 61.05144368065534-15.34L61.05144368065534-15.34Q63.21202049516222-20.43 66.68963299713532-24.5 70.17724549910841-28.57 74.3120270727147-30.89 78.44680864632096-33.21 82.44680864632096-33.21L82.44680864632096-33.21Q86.45680864632098-33.21 88.6220270727147-30.89 90.78724549910841-28.57 90.80963299713531-24.5 90.84202049516223-20.43 88.68144368065533-15.34L88.68144368065533-15.34Q86.52511161431055-10.26 83.03749911233746-6.19 79.55564186220226-2.11 75.45359453308227 0.18 71.35730245580018 2.48 67.29730245580018 2.48ZM68.10380460659843 0.58L68.10380460659843 0.58Q71.57380460659843 0.58 75.12275423901764-1.42 78.67170387143685-3.42 81.68830270611562-7.04 84.71490154079439-10.66 86.70144368065533-15.34L86.70144368065533-15.34Q88.68798582051629-20.02 88.73882940335716-23.65 88.79542823803592-27.27 86.94437787045513-29.27 85.09332750287433-31.27 81.62332750287433-31.27L81.62332750287433-31.27Q78.16332750287434-31.27 74.63437787045513-29.27 71.10542823803593-27.27 68.08882940335715-23.65 65.0579858205163-20.02 63.071443680655335-15.34L63.071443680655335-15.34Q61.08490154079439-10.66 61.038302706115616-7.04 60.98170387143685-3.42 62.81275423901764-1.42 64.64380460659844 0.58 68.10380460659843 0.58ZM99.42730245580019 2.48L99.42730245580019 2.48Q95.74730245580018 2.48 93.60646216173555 0.88 91.47562186767092-0.72 91.15659883467877-3.62 90.82757580168662-6.52 92.4533143477694-10.35L92.4533143477694-10.35 101.94457123821617-32.71 103.83457123821617-32.71 94.30511161431055-10.26Q92.90858946898095-6.97 93.17862616926742-4.52 93.43866286955388-2.07 95.24411136399512-0.74 97.04380460659844 0.58 100.19380460659843 0.58L100.19380460659843 0.58Q105.05380460659843 0.58 109.13176056625466-2.36 113.223961274073-5.31 115.3802933404178-10.39L115.3802933404178-10.39 124.85457123821617-32.71 126.83457123821617-32.71 117.34331434776941-10.35Q115.70059680903825-6.48 112.91961984203039-3.58 110.12439812686044-0.67 106.64797266541136 0.9 103.16730245580018 2.48 99.42730245580019 2.48ZM151.68144368065532-15.34L151.68144368065532-15.34Q149.4699298882033-10.13 145.99749911233747-6.19 142.5250683364716-2.25 138.19669222978305-0.11 133.87256087125658 2.02 129.1425608712566 2.02L129.1425608712566 2.02 119.11256087125659 2.02 133.85457123821618-32.71 143.88457123821618-32.71Q148.61457123821617-32.71 151.13043987968973-30.58 153.64206377300115-28.44 153.76963299713532-24.5 153.89720222126945-20.56 151.68144368065532-15.34ZM149.65144368065532-15.34L149.65144368065532-15.34Q151.6210068278679-19.98 151.6024239364394-23.47 151.56959629684883-26.95 149.4145879439713-28.87 147.25533484293163-30.78 142.97533484293163-30.78L142.97533484293163-30.78 135.01533484293162-30.78 121.91179726654114 0.09 129.87179726654114 0.09Q134.10179726654113 0.09 137.92103366182565-1.84 141.7345148052723-3.78 144.7174424175196-7.25 147.68612528160486-10.71 149.65144368065532-15.34Z" transform="translate(-6.879545211791992, 33.209999084472656)"></path></g>       </g></g> </g></mask><defs v-gra="od"><linearGradient x1="0" y1="1" x2="0" y2="0" id="a5ccd5df-512d-4fdc-917f-d6a378339a3e"><stop offset="0%" stop-color="#00f2fe"></stop><stop offset="100%" stop-color="#4facfe"></stop></linearGradient><filter id="42443b3f1de60f6b6fd3b6a9844b4764" filterUnits="userSpaceOnUse"><feColorMatrix type="matrix" values="0 0 0 0 0.99609375  0 0 0 0 0.99609375  0 0 0 0 0.99609375  0 0 0 1 0"></feColorMatrix></filter></defs><defs v-gra="id"><filter id="7e526b51-9a31-4e36-863c-ede6c98e0b32" filterUnits="userSpaceOnUse"><feColorMatrix type="matrix" values="0 0 0 0 0.99609375  0 0 0 0 0.99609375  0 0 0 0 0.99609375  0 0 0 1 0"></feColorMatrix></filter><linearGradient x1="0" y1="1" x2="0" y2="0" id="LyxAvnQaQGZ3jJzxSiWvD"><stop offset="0%" stop-color="#00f2fe"></stop><stop offset="100%" stop-color="#4facfe"></stop></linearGradient><filter id="42443b3f1de60f6b6fd3b6a9844b4764" filterUnits="userSpaceOnUse"><feColorMatrix type="matrix" values="0 0 0 0 0.99609375  0 0 0 0 0.99609375  0 0 0 0 0.99609375  0 0 0 1 0"></feColorMatrix></filter></defs><mask v-gra="im" id="3738d1b9-9f76-43a6-8aff-063879431970"><g mask="url(#27dbba4d-0265-41e0-831e-8c19b538935d)" filter="url(#7e526b51-9a31-4e36-863c-ede6c98e0b32)"><g><rect fill="#333" fill-opacity="0" stroke-width="2" x="0" y="0" width="149.999999999999" height="99.38645428885613" class="image-rect"></rect> <svg x="0" y="0" width="149.999999999999" height="99.38645428885613" filtersec="colorsb2298108734" class="image-svg-svg primary" style="overflow: visible;"><svg xmlns="http://www.w3.org/2000/svg" viewBox="0.0065417904406785965 0 150.9322052001953 100.00425720214844"><path d="M14.56 70.67a23.2 23.2 0 0 1 22-30.48h.21a23.25 23.25 0 0 1 17 7.62l9.92-9a36.72 36.72 0 0 0-26.91-12h-.18A36.57 36.57 0 0 0 4.67 81.25c.99-3.47 5.03-7.19 9.89-10.58z" fill="#005add"></path><path fill="#333" d="M147.93 38.84l-10.48-3.04 2.8 4.01-1.71 4.59 9.39-5.56z"></path><path d="M79.7 0a49.18 49.18 0 0 0-41.56 22.91A36.81 36.81 0 0 1 51 27.81a35.78 35.78 0 0 1 64.07 15.94l13.2-2.16A49.21 49.21 0 0 0 79.7 0z" fill="#0035a1"></path><path d="M129.07 43.3a117.78 117.78 0 0 0-13.68 3.75c0 .7.07 1.39.07 2.09v6.7h6.69a15.39 15.39 0 1 1 0 30.77h-83c-4.81 0-7.1-2.94-7.1-5.32 0-7 11-14.32 28.48-21.09A343.15 343.15 0 0 1 119 43.65q9-1.74 18-3a.44.44 0 0 0 .38-.44.45.45 0 0 0-.5-.44c-16.16 2-32.27 4.37-48.26 7.45-11.57 2.22-23.08 4.78-34.37 8.15a167 167 0 0 0-22.79 8.34A67.55 67.55 0 0 0 17.54 72c-4.3 3.45-9 8.7-7.95 14.66.88 4.89 5.28 8.06 9.56 9.95A43.48 43.48 0 0 0 36.6 100h85.55a28.77 28.77 0 0 0 6.92-56.7z" fill="#00acff"></path></svg></svg> <!----></g></g></mask></svg>